<svg width="25" height="25" viewBox="0 0 25 25" fill="none" xmlns="http://www.w3.org/2000/svg">
<path d="M22.9167 19.3802C22.9167 19.5874 22.8344 19.7861 22.6878 19.9326C22.5413 20.0791 22.3426 20.1615 22.1354 20.1615H16.8229C16.6489 20.8103 16.2657 21.3836 15.7327 21.7925C15.1997 22.2013 14.5468 22.423 13.875 22.423C13.2032 22.423 12.5502 22.2013 12.0173 21.7925C11.4843 21.3836 11.1011 20.8103 10.9271 20.1615H2.86458C2.65738 20.1615 2.45866 20.0791 2.31215 19.9326C2.16564 19.7861 2.08333 19.5874 2.08333 19.3802C2.08333 19.173 2.16564 18.9743 2.31215 18.8278C2.45866 18.6813 2.65738 18.599 2.86458 18.599H10.9271C11.1011 17.9501 11.4843 17.3768 12.0173 16.9679C12.5502 16.5591 13.2032 16.3374 13.875 16.3374C14.5468 16.3374 15.1997 16.5591 15.7327 16.9679C16.2657 17.3768 16.6489 17.9501 16.8229 18.599H22.1354C22.3426 18.599 22.5413 18.6813 22.6878 18.8278C22.8344 18.9743 22.9167 19.173 22.9167 19.3802ZM22.9167 5.61979C22.9167 5.82699 22.8344 6.0257 22.6878 6.17222C22.5413 6.31873 22.3426 6.40104 22.1354 6.40104H19.5833C19.4093 7.04987 19.0261 7.62317 18.4931 8.03205C17.9602 8.44093 17.3072 8.66255 16.6354 8.66255C15.9637 8.66255 15.3107 8.44093 14.7777 8.03205C14.2447 7.62317 13.8615 7.04987 13.6875 6.40104H2.86458C2.76198 6.40104 2.66039 6.38083 2.56561 6.34157C2.47082 6.30231 2.3847 6.24476 2.31215 6.17222C2.23961 6.09967 2.18206 6.01355 2.1428 5.91876C2.10354 5.82398 2.08333 5.72239 2.08333 5.61979C2.08333 5.51719 2.10354 5.4156 2.1428 5.32082C2.18206 5.22603 2.23961 5.13991 2.31215 5.06736C2.3847 4.99482 2.47082 4.93727 2.56561 4.89801C2.66039 4.85875 2.76198 4.83854 2.86458 4.83854H13.6875C13.8615 4.18971 14.2447 3.61641 14.7777 3.20753C15.3107 2.79865 15.9637 2.57703 16.6354 2.57703C17.3072 2.57703 17.9602 2.79865 18.4931 3.20753C19.0261 3.61641 19.4093 4.18971 19.5833 4.83854H22.1354C22.2384 4.83714 22.3406 4.85639 22.436 4.89515C22.5315 4.93392 22.6181 4.99141 22.691 5.06424C22.7638 5.13707 22.8213 5.22375 22.86 5.31917C22.8988 5.41459 22.9181 5.51681 22.9167 5.61979ZM22.9167 12.4948C22.9181 12.5978 22.8988 12.7 22.86 12.7954C22.8213 12.8908 22.7638 12.9775 22.691 13.0503C22.6181 13.1232 22.5315 13.1807 22.436 13.2194C22.3406 13.2582 22.2384 13.2774 22.1354 13.276H9.94791C9.77391 13.9249 9.39071 14.4982 8.85773 14.9071C8.32474 15.3159 7.67175 15.5376 6.99999 15.5376C6.32824 15.5376 5.67525 15.3159 5.14226 14.9071C4.60928 14.4982 4.22608 13.9249 4.05208 13.276H2.86458C2.65738 13.276 2.45866 13.1937 2.31215 13.0472C2.16564 12.9007 2.08333 12.702 2.08333 12.4948C2.08333 12.2876 2.16564 12.0889 2.31215 11.9424C2.45866 11.7959 2.65738 11.7135 2.86458 11.7135H4.05208C4.22608 11.0647 4.60928 10.4914 5.14226 10.0825C5.67525 9.67365 6.32824 9.45203 6.99999 9.45203C7.67175 9.45203 8.32474 9.67365 8.85773 10.0825C9.39071 10.4914 9.77391 11.0647 9.94791 11.7135H22.1354C22.3426 11.7135 22.5413 11.7959 22.6878 11.9424C22.8344 12.0889 22.9167 12.2876 22.9167 12.4948Z" fill="#FF9D33"/>
</svg>
