<svg width="20" height="20" viewBox="0 0 20 20" fill="none" xmlns="http://www.w3.org/2000/svg">
<path d="M17.1983 11.78L17.1567 11.3659L17.1442 11.3667L17.13 11.3692L17.1983 11.78ZM17.1983 11.78L17.24 12.195L17.2542 12.1934L17.2675 12.1909L17.1983 11.78ZM13.8317 16.3484L14.0958 16.0259L14.0917 16.0234L13.8317 16.3484ZM13.8317 16.3484L13.5675 16.6709L13.5717 16.6742L13.8317 16.3484ZM6.16833 16.3484L5.90417 16.0267L5.89833 16.0317L5.89167 16.0375L6.16833 16.3484ZM6.16833 16.3484L6.4325 16.6717L6.43917 16.6659L6.445 16.6609L6.16833 16.3484ZM2.80083 8.22002V7.80335H2.78083L2.76 7.80502L2.80083 8.22002ZM2.80083 8.22002V8.63669H2.82167L2.8425 8.63419L2.80083 8.22002ZM12.1933 2.75919C12.1808 2.60809 12.1633 2.45745 12.1408 2.30752C12.1218 2.17485 12.0818 2.04604 12.0225 1.92585L11.2817 2.30835C11.29 2.32502 11.3042 2.35835 11.3183 2.44502C11.3342 2.53669 11.3458 2.65585 11.365 2.84169L12.1933 2.75919ZM12.3567 3.76169C12.3467 3.74919 12.3167 3.69835 12.2842 3.52002C12.2454 3.26753 12.2162 3.01376 12.195 2.75919L11.365 2.84169C11.3983 3.17585 11.4258 3.45252 11.4642 3.66752C11.5017 3.87752 11.56 4.09169 11.6942 4.26752L12.3567 3.76169ZM12.7433 3.92169C12.6705 3.93149 12.5964 3.92185 12.5285 3.89375C12.4606 3.86565 12.4013 3.82009 12.3567 3.76169L11.6933 4.26669C11.8272 4.44217 12.0051 4.5791 12.2089 4.66356C12.4128 4.74801 12.6355 4.77698 12.8542 4.74752L12.7433 3.92169ZM13.5667 3.32752C13.2958 3.55002 13.1108 3.70085 12.965 3.80169C12.8158 3.90502 12.7583 3.91919 12.7433 3.92169L12.8542 4.74752C13.0725 4.71835 13.265 4.60835 13.4408 4.48585C13.62 4.36085 13.8342 4.18585 14.095 3.97252L13.5667 3.32752ZM14.2767 2.86002C14.1433 2.90252 14.0308 2.97002 13.9242 3.04585C13.8208 3.11919 13.7033 3.21585 13.5667 3.32752L14.095 3.97252C14.2392 3.85419 14.3325 3.77835 14.4075 3.72502C14.4447 3.69502 14.4863 3.67085 14.5308 3.65335L14.2767 2.86002ZM15.1542 2.90335C14.8765 2.78321 14.5648 2.76781 14.2767 2.86002L14.5308 3.65335C14.6267 3.623 14.7303 3.62833 14.8225 3.66835L15.1542 2.90335ZM15.8142 3.44002C15.6892 3.31502 15.5817 3.20669 15.4867 3.12335C15.3881 3.03297 15.2759 2.95872 15.1542 2.90335L14.8225 3.66835C14.84 3.67585 14.8717 3.69335 14.9383 3.75169C15.0075 3.81169 15.0925 3.89669 15.225 4.02919L15.8142 3.44002ZM16.5583 4.18419L15.8142 3.44002L15.225 4.02919L15.9692 4.77335L16.5583 4.18419ZM17.095 4.84419C17.0393 4.72243 16.9648 4.61021 16.8742 4.51169C16.7908 4.41669 16.6825 4.30919 16.5583 4.18419L15.9692 4.77335C16.1017 4.90585 16.1858 4.99085 16.2475 5.06002C16.3058 5.12669 16.3225 5.15835 16.33 5.17585L17.095 4.84419ZM17.1383 5.72169C17.2305 5.43358 17.2151 5.12181 17.095 4.84419L16.33 5.17585C16.3698 5.26818 16.3748 5.37177 16.3442 5.46752L17.1383 5.72169ZM16.6708 6.43169C16.7825 6.29502 16.8792 6.17752 16.9525 6.07419C17.0275 5.96752 17.0958 5.85502 17.1383 5.72169L16.3442 5.46752C16.3269 5.51198 16.3031 5.55357 16.2733 5.59085C16.194 5.69745 16.1114 5.80167 16.0258 5.90335L16.6708 6.43169ZM16.0767 7.25502C16.0792 7.24002 16.0933 7.18252 16.1967 7.03335C16.2975 6.88752 16.4483 6.70252 16.6708 6.43169L16.0258 5.90335C15.8125 6.16419 15.6367 6.37835 15.5125 6.55752C15.39 6.73252 15.28 6.92585 15.2508 7.14419L16.0767 7.25502ZM16.2367 7.64169C16.1783 7.59707 16.1327 7.5378 16.1046 7.4699C16.0765 7.40199 16.0669 7.32786 16.0767 7.25502L15.2508 7.14419C15.2215 7.36277 15.2506 7.58522 15.335 7.78895C15.4195 7.99268 15.5563 8.17044 15.7317 8.30419L16.2367 7.64169ZM17.2392 7.80419C16.89 7.76919 16.6533 7.74585 16.4783 7.71419C16.3 7.68169 16.2492 7.65169 16.2367 7.64169L15.7317 8.30419C15.9067 8.43752 16.1208 8.49585 16.3317 8.53419C16.5458 8.57252 16.8217 8.60085 17.1567 8.63419L17.2392 7.80419ZM18.0725 7.97585C17.9523 7.91653 17.8235 7.87659 17.6908 7.85752C17.5658 7.83669 17.4142 7.82169 17.2392 7.80419L17.1558 8.63335C17.3425 8.65252 17.4617 8.66419 17.5533 8.68002C17.6005 8.68533 17.6465 8.69769 17.69 8.71669L18.0725 7.97585ZM18.6617 8.62669C18.5504 8.34565 18.3411 8.11443 18.0725 7.97585L17.69 8.71669C17.7796 8.76276 17.8495 8.83973 17.8867 8.93335L18.6617 8.62669ZM18.7492 9.47252C18.7492 9.29669 18.7492 9.14419 18.7408 9.01752C18.7352 8.88388 18.7085 8.75198 18.6617 8.62669L17.8867 8.93335C17.8933 8.95085 17.9033 8.98585 17.9092 9.07335C17.9157 9.20658 17.9179 9.33998 17.9158 9.47335L18.7492 9.47252ZM18.7492 10.5259V9.47252H17.9158V10.5259H18.7492ZM18.6617 11.3709C18.7133 11.2409 18.7325 11.1109 18.7408 10.98C18.7492 10.8542 18.7492 10.7017 18.7492 10.5259H17.9158C17.9158 10.7125 17.9158 10.8325 17.9092 10.925C17.9088 10.9726 17.9012 11.0198 17.8867 11.065L18.6617 11.3709ZM18.0725 12.0225C18.3413 11.8837 18.5506 11.6522 18.6617 11.3709L17.8867 11.065C17.8495 11.1586 17.7796 11.2356 17.69 11.2817L18.0725 12.0225ZM17.2392 12.1942C17.4142 12.1767 17.5667 12.1609 17.6908 12.14C17.82 12.1192 17.9475 12.0867 18.0717 12.0234L17.69 11.2817C17.6466 11.3007 17.6005 11.3131 17.5533 11.3184C17.4617 11.3342 17.3425 11.3459 17.1567 11.365L17.2392 12.1942ZM16.2375 12.3567C16.25 12.3467 16.3008 12.3159 16.4792 12.2842C16.6542 12.2525 16.8908 12.2284 17.2392 12.1942L17.1567 11.365C16.8225 11.3984 16.5458 11.425 16.3308 11.4642C16.1208 11.5017 15.9075 11.56 15.7317 11.6934L16.2375 12.3567ZM16.0767 12.7434C16.067 12.6704 16.0767 12.5963 16.105 12.5283C16.1332 12.4604 16.1789 12.4012 16.2375 12.3567L15.7317 11.6934C15.5562 11.8272 15.4193 12.0051 15.3348 12.209C15.2503 12.4129 15.2214 12.6355 15.2508 12.8542L16.0767 12.7434ZM16.6708 13.5667C16.5059 13.3716 16.3478 13.171 16.1967 12.965C16.0933 12.8167 16.0792 12.7584 16.0767 12.7434L15.2517 12.855C15.2808 13.0734 15.3908 13.265 15.5125 13.4409C15.6375 13.6192 15.8125 13.8342 16.0258 14.0942L16.6708 13.5667ZM17.1383 14.2767C17.0954 14.1499 17.0326 14.0306 16.9525 13.9234C16.8624 13.8016 16.7684 13.6826 16.6708 13.5667L16.0258 14.0942C16.1442 14.2392 16.22 14.3317 16.2733 14.4075C16.303 14.4446 16.3268 14.4859 16.3442 14.53L17.1383 14.2767ZM17.095 15.1542C17.2151 14.8766 17.2305 14.5648 17.1383 14.2767L16.3442 14.53C16.375 14.626 16.37 14.7299 16.33 14.8225L17.095 15.1542ZM16.5592 15.8134C16.6833 15.6892 16.7908 15.5817 16.8742 15.4867C16.9608 15.3875 17.0392 15.2834 17.095 15.1542L16.33 14.8225C16.3082 14.8648 16.2801 14.9036 16.2467 14.9375C16.157 15.0358 16.0645 15.1314 15.9692 15.2242L16.5592 15.8134ZM15.8142 16.5584L16.5592 15.8134L15.9692 15.2242L15.225 15.9692L15.8142 16.5584ZM15.1542 17.0942C15.2825 17.0384 15.3875 16.9609 15.4867 16.8742C15.5817 16.7909 15.6892 16.6825 15.8142 16.5575L15.225 15.9692C15.0925 16.1017 15.0075 16.1859 14.9383 16.2467C14.9042 16.2802 14.8651 16.3083 14.8225 16.33L15.1542 17.0942ZM14.2767 17.1384C14.5649 17.2303 14.8766 17.2146 15.1542 17.0942L14.8225 16.33C14.7302 16.3698 14.6266 16.3748 14.5308 16.3442L14.2767 17.1384ZM13.5667 16.67C13.7033 16.7817 13.8208 16.8784 13.9242 16.9517C14.0308 17.0275 14.1433 17.0959 14.2767 17.1384L14.5308 16.3442C14.4864 16.327 14.4448 16.3031 14.4075 16.2734C14.3009 16.1937 14.1967 16.1109 14.095 16.025L13.5667 16.67ZM12.7433 16.0767C12.7583 16.0784 12.8167 16.0934 12.965 16.1967C13.1108 16.2975 13.2958 16.4484 13.5667 16.67L14.095 16.025C13.8342 15.8125 13.62 15.6367 13.4408 15.5117C13.2658 15.39 13.0725 15.28 12.8542 15.2509L12.7433 16.0767ZM12.3567 16.2367C12.4013 16.1783 12.4606 16.1327 12.5285 16.1046C12.5964 16.0765 12.6705 16.0669 12.7433 16.0767L12.8542 15.2509C12.6357 15.2215 12.4133 15.2504 12.2095 15.3347C12.0058 15.419 11.828 15.5557 11.6942 15.7309L12.3567 16.2367ZM12.1942 17.2392C12.2292 16.89 12.2525 16.6534 12.2842 16.4784C12.3167 16.3 12.3467 16.2492 12.3567 16.2367L11.6942 15.7309C11.5608 15.9059 11.5025 16.1209 11.4642 16.3309C11.4258 16.545 11.3975 16.8209 11.3642 17.1559L12.1942 17.2392ZM12.0225 18.0725C12.0867 17.9475 12.1183 17.82 12.14 17.6909C12.1617 17.5659 12.1767 17.4142 12.1942 17.2392L11.3642 17.1559C11.3526 17.2888 11.3379 17.4214 11.3183 17.5534C11.313 17.6005 11.3007 17.6466 11.2817 17.69L12.0225 18.0725ZM11.3717 18.6617C11.6527 18.5504 11.8839 18.3411 12.0225 18.0725L11.2817 17.69C11.2356 17.7796 11.1586 17.8495 11.065 17.8867L11.3717 18.6617ZM10.5258 18.7492C10.7017 18.7492 10.8542 18.7492 10.9808 18.7409C11.1108 18.7325 11.2417 18.7134 11.3717 18.6617L11.065 17.8867C11.0197 17.9012 10.9725 17.9088 10.925 17.9092C10.8333 17.9159 10.7125 17.9159 10.525 17.9159L10.5258 18.7492ZM9.4725 18.7492H10.5258L10.525 17.9159H9.4725V18.7492ZM8.62667 18.6617C8.7575 18.7134 8.8875 18.7325 9.01833 18.7409C9.14417 18.7492 9.29667 18.7492 9.4725 18.7492V17.9159C9.28583 17.9159 9.16583 17.9159 9.07333 17.9092C9.0258 17.9088 8.97861 17.9012 8.93333 17.8867L8.62667 18.6617ZM7.97583 18.0725C8.11441 18.3411 8.34563 18.5504 8.62667 18.6617L8.93333 17.8867C8.83971 17.8495 8.76274 17.7796 8.71667 17.69L7.97583 18.0725ZM7.80417 17.2392C7.82167 17.4142 7.8375 17.5667 7.8575 17.6909C7.87917 17.82 7.91167 17.9475 7.97583 18.0725L8.71667 17.69C8.69767 17.6466 8.68531 17.6005 8.68 17.5534C8.66048 17.4216 8.64491 17.2893 8.63333 17.1567L7.80417 17.2392ZM7.64167 16.2367C7.65167 16.2492 7.68167 16.3 7.71417 16.4784C7.74583 16.6534 7.76917 16.8909 7.80417 17.2392L8.63333 17.1567C8.6 16.8225 8.5725 16.5459 8.53417 16.3309C8.49667 16.1209 8.43833 15.9067 8.30417 15.7309L7.64167 16.2367ZM7.255 16.0767C7.32784 16.0669 7.40197 16.0765 7.46988 16.1046C7.53778 16.1327 7.59705 16.1783 7.64167 16.2367L8.30417 15.7309C8.17042 15.5555 7.99266 15.4195 7.78893 15.335C7.5852 15.2506 7.36275 15.2215 7.14417 15.2509L7.255 16.0767ZM6.43167 16.6709C6.7025 16.4484 6.8875 16.2975 7.03333 16.1967C7.1825 16.0934 7.24 16.0784 7.255 16.0767L7.14417 15.2509C6.92583 15.28 6.73333 15.39 6.5575 15.5125C6.37833 15.6367 6.16417 15.8125 5.90333 16.0259L6.43167 16.6709ZM5.72167 17.1384C5.855 17.0959 5.9675 17.0284 6.07417 16.9525C6.1775 16.8792 6.295 16.7825 6.43167 16.6709L5.90333 16.0259C5.80164 16.1114 5.69743 16.194 5.59083 16.2734C5.55356 16.3031 5.51197 16.327 5.4675 16.3442L5.72167 17.1384ZM4.84417 17.0959C5.12179 17.216 5.43356 17.2306 5.72167 17.1384L5.4675 16.3442C5.37175 16.3748 5.26816 16.3698 5.17583 16.33L4.84417 17.0959ZM4.18417 16.5584C4.30917 16.6834 4.41667 16.7917 4.51167 16.875C4.61 16.9609 4.71583 17.04 4.84417 17.0959L5.17583 16.33C5.13321 16.3083 5.09415 16.2802 5.06 16.2467C4.96172 16.157 4.86613 16.0645 4.77333 15.9692L4.18417 16.5584ZM3.44 15.8142L4.18417 16.5584L4.77333 15.9692L4.02917 15.225L3.44 15.8142ZM2.90333 15.1542C2.95917 15.2825 3.0375 15.3875 3.12417 15.4867C3.2075 15.5817 3.31583 15.6892 3.44 15.8142L4.02917 15.225C3.93357 15.1322 3.84075 15.0366 3.75083 14.9384C3.71735 14.9042 3.68925 14.8651 3.6675 14.8225L2.90333 15.1542ZM2.86 14.2767C2.76779 14.5648 2.78319 14.8766 2.90333 15.1542L3.6675 14.8225C3.62748 14.7303 3.62298 14.6267 3.65333 14.5309L2.86 14.2767ZM3.3275 13.5667C3.21583 13.7034 3.11917 13.8209 3.04583 13.9242C2.96577 14.0312 2.90306 14.1502 2.86 14.2767L3.65333 14.5309C3.67083 14.4863 3.695 14.4448 3.725 14.4075C3.77833 14.3325 3.85417 14.2392 3.9725 14.095L3.3275 13.5667ZM3.92167 12.7434C3.91917 12.7584 3.905 12.8159 3.80167 12.965C3.7 13.1109 3.55 13.2959 3.3275 13.5667L3.9725 14.095C4.18583 13.8342 4.36167 13.62 4.48583 13.4409C4.60833 13.2659 4.71833 13.0725 4.7475 12.8542L3.92167 12.7434ZM3.76167 12.3567C3.82007 12.4013 3.86563 12.4606 3.89373 12.5285C3.92183 12.5964 3.93147 12.6705 3.92167 12.7434L4.7475 12.8542C4.77681 12.6356 4.74776 12.4132 4.66331 12.2094C4.57887 12.0057 4.44202 11.8279 4.26667 11.6942L3.76167 12.3567ZM2.75917 12.195C3.10833 12.2292 3.345 12.2525 3.52 12.2842C3.69833 12.3167 3.74917 12.3467 3.76167 12.3567L4.26667 11.6934C4.09167 11.56 3.8775 11.5017 3.66667 11.4642C3.4525 11.4259 3.17667 11.3975 2.84167 11.3642L2.75917 12.195ZM1.92583 12.0225C2.05083 12.0867 2.17833 12.1184 2.3075 12.14C2.4325 12.1617 2.58333 12.1775 2.75917 12.195L2.8425 11.365C2.70956 11.3535 2.577 11.3379 2.445 11.3184C2.39786 11.313 2.35179 11.3007 2.30833 11.2817L1.92583 12.0225ZM1.33667 11.3709C1.44774 11.6522 1.65707 11.8837 1.92583 12.0225L2.30833 11.2817C2.21874 11.2356 2.14887 11.1586 2.11167 11.065L1.33667 11.3709ZM1.25 10.5275C1.25 10.7034 1.25 10.8559 1.25833 10.9825C1.26373 11.1159 1.29045 11.2476 1.3375 11.3725L2.1125 11.0667C2.09801 11.0214 2.09043 10.9742 2.09 10.9267C2.08381 10.7934 2.08158 10.6601 2.08333 10.5267L1.25 10.5275ZM1.25 9.47419V10.5275H2.08333V9.47419H1.25ZM1.3375 8.62835C1.29064 8.75392 1.26392 8.88611 1.25833 9.02002C1.25 9.14585 1.25 9.29835 1.25 9.47419H2.08333C2.08333 9.28752 2.08333 9.16752 2.09 9.07502C2.0904 9.02749 2.09799 8.98029 2.1125 8.93502L1.3375 8.62835ZM1.92667 7.97752C1.65805 8.1161 1.44874 8.34731 1.3375 8.62835L2.1125 8.93502C2.14971 8.8414 2.21957 8.76442 2.30917 8.71835L1.92667 7.97752ZM2.76 7.80502C2.585 7.82252 2.4325 7.83919 2.30833 7.85919C2.17567 7.87826 2.04685 7.9182 1.92667 7.97752L2.30917 8.71835C2.32583 8.71002 2.35917 8.69585 2.44583 8.68169C2.5375 8.66585 2.65667 8.65419 2.8425 8.63502L2.76 7.80502ZM3.7625 7.64335C3.75 7.65335 3.69917 7.68335 3.52083 7.71585C3.34583 7.74752 3.10917 7.77002 2.76 7.80502L2.8425 8.63502C3.17667 8.60169 3.45417 8.57419 3.66833 8.53585C3.87917 8.49835 4.09333 8.44002 4.26833 8.30585L3.7625 7.64335ZM3.9225 7.25669C3.9323 7.32952 3.92266 7.40366 3.89456 7.47156C3.86646 7.53947 3.8209 7.59874 3.7625 7.64335L4.26833 8.30585C4.44354 8.17201 4.58022 7.99421 4.66452 7.79048C4.74882 7.58676 4.77773 7.36353 4.74833 7.14502L3.9225 7.25669ZM3.32833 6.43252C3.55083 6.70419 3.70167 6.88919 3.80333 7.03502C3.90667 7.18419 3.92 7.24169 3.9225 7.25669L4.74833 7.14502C4.71917 6.92669 4.60917 6.73502 4.48667 6.55919C4.3625 6.38002 4.18667 6.16585 3.97333 5.90502L3.32833 6.43252ZM2.86083 5.72252C2.9025 5.85585 2.97083 5.96919 3.04667 6.07585C3.12 6.17835 3.21667 6.29669 3.32833 6.43252L3.97333 5.90502C3.88774 5.80305 3.80521 5.69856 3.72583 5.59169C3.6959 5.5547 3.67174 5.5134 3.65417 5.46919L2.86083 5.72252ZM2.90417 4.84585C2.78423 5.12323 2.76883 5.43467 2.86083 5.72252L3.65417 5.46919C3.62381 5.37334 3.62914 5.26975 3.66917 5.17752L2.90417 4.84585ZM3.44083 4.18585C3.31583 4.31002 3.2075 4.41752 3.12417 4.51335C3.0338 4.61192 2.95955 4.72414 2.90417 4.84585L3.66917 5.17752C3.69098 5.1352 3.71908 5.0956 3.7525 5.06169C3.84177 4.96306 3.93433 4.86745 4.03 4.77502L3.44083 4.18585ZM4.185 3.44085L3.44083 4.18585L4.03 4.77502L4.77417 4.03002L4.185 3.44085ZM4.845 2.90502C4.72332 2.96046 4.61111 3.03471 4.5125 3.12502C4.4175 3.20835 4.30917 3.31585 4.185 3.44085L4.77417 4.03002C4.90667 3.89835 4.99167 3.81335 5.06083 3.75252C5.1275 3.69419 5.15917 3.67752 5.17667 3.66919L4.845 2.90502ZM5.7225 2.86085C5.43429 2.76891 5.12252 2.7846 4.845 2.90502L5.17667 3.66919C5.2689 3.62916 5.37249 3.62467 5.46833 3.65502L5.7225 2.86085ZM6.4325 3.32919C6.29583 3.21752 6.17833 3.12085 6.075 3.04752C5.96806 2.96713 5.84909 2.90413 5.7225 2.86085L5.46833 3.65502C5.51279 3.67226 5.55437 3.69615 5.59167 3.72585C5.66667 3.78002 5.76 3.85585 5.905 3.97419L6.4325 3.32919ZM7.25583 3.92335C7.24083 3.92085 7.18333 3.90669 7.03417 3.80335C6.82821 3.65199 6.62753 3.49439 6.4325 3.32919L5.905 3.97419C6.165 4.18752 6.38 4.36335 6.55833 4.48752C6.73333 4.60919 6.92667 4.71919 7.145 4.74919L7.25583 3.92335ZM7.6425 3.76252C7.59798 3.82107 7.53875 3.8668 7.47084 3.89505C7.40293 3.92329 7.32874 3.93306 7.25583 3.92335L7.145 4.74919C7.36364 4.77874 7.58621 4.74907 7.79009 4.66476C7.99398 4.58046 8.17192 4.44369 8.30583 4.26835L7.6425 3.76252ZM7.805 2.76085C7.77 3.10919 7.74667 3.34669 7.715 3.52085C7.6825 3.69919 7.6525 3.75002 7.6425 3.76252L8.30583 4.26835C8.43917 4.09335 8.4975 3.87919 8.535 3.66835C8.57333 3.45419 8.60167 3.17835 8.635 2.84335L7.805 2.76085ZM7.97667 1.92752C7.9125 2.05252 7.88 2.18002 7.85833 2.30919C7.8375 2.43419 7.8225 2.58502 7.805 2.76085L8.63417 2.84419C8.64573 2.71125 8.66129 2.57869 8.68083 2.44669C8.68609 2.39954 8.69845 2.35347 8.7175 2.31002L7.97667 1.92752ZM8.62833 1.33835C8.34684 1.44963 8.11529 1.65844 7.97667 1.92752L8.7175 2.31002C8.76357 2.22043 8.84054 2.15056 8.93417 2.11335L8.62833 1.33835ZM9.47333 1.25085C9.2975 1.25085 9.145 1.25085 9.01833 1.25919C8.88494 1.26458 8.75327 1.29131 8.62833 1.33835L8.93417 2.11335C8.97943 2.09884 9.02663 2.09126 9.07417 2.09085C9.16583 2.08419 9.28667 2.08419 9.47417 2.08419L9.47333 1.25085ZM10.5267 1.25085H9.47333V2.08419H10.5267V1.25085ZM11.3725 1.33835C11.2469 1.29148 11.1147 1.26476 10.9808 1.25919C10.855 1.25085 10.7025 1.25085 10.5267 1.25085V2.08419C10.7133 2.08419 10.8333 2.08419 10.9258 2.09085C10.9733 2.09153 11.0205 2.09911 11.0658 2.11335L11.3725 1.33835ZM12.0233 1.92752C11.8846 1.65875 11.653 1.44943 11.3717 1.33835L11.0658 2.11335C11.1595 2.15056 11.2364 2.22043 11.2825 2.31002L12.0233 1.92752ZM12.9167 10C12.9167 10.7736 12.6094 11.5154 12.0624 12.0624C11.5154 12.6094 10.7735 12.9167 10 12.9167V13.75C10.9946 13.75 11.9484 13.3549 12.6517 12.6517C13.3549 11.9484 13.75 10.9946 13.75 10H12.9167ZM10 7.08335C10.7735 7.08335 11.5154 7.39064 12.0624 7.93763C12.6094 8.48461 12.9167 9.22647 12.9167 10H13.75C13.75 9.00546 13.3549 8.05163 12.6517 7.34837C11.9484 6.64511 10.9946 6.25002 10 6.25002V7.08335ZM7.08333 10C7.08333 9.22647 7.39062 8.48461 7.93761 7.93763C8.48459 7.39064 9.22645 7.08335 10 7.08335V6.25002C9.00544 6.25002 8.05161 6.64511 7.34835 7.34837C6.64509 8.05163 6.25 9.00546 6.25 10H7.08333ZM10 12.9167C9.22645 12.9167 8.48459 12.6094 7.93761 12.0624C7.39062 11.5154 7.08333 10.7736 7.08333 10H6.25C6.25 10.9946 6.64509 11.9484 7.34835 12.6517C8.05161 13.3549 9.00544 13.75 10 13.75V12.9167Z" fill="black"/>
</svg>
