<svg width="15" height="15" viewBox="0 0 15 15" fill="none" xmlns="http://www.w3.org/2000/svg">
<path d="M12.6563 13.125C12.5948 13.1251 12.5338 13.113 12.4769 13.0894C12.4201 13.0658 12.3684 13.0312 12.325 12.9876L2.0125 2.6751C1.9283 2.58647 1.88206 2.46846 1.88362 2.34623C1.88519 2.224 1.93444 2.10722 2.02088 2.02078C2.10731 1.93434 2.2241 1.88509 2.34633 1.88352C2.46856 1.88196 2.58657 1.9282 2.67519 2.0124L12.9877 12.3249C13.0532 12.3905 13.0978 12.474 13.1159 12.5649C13.134 12.6558 13.1247 12.75 13.0892 12.8356C13.0538 12.9212 12.9937 12.9944 12.9167 13.0459C12.8396 13.0974 12.749 13.125 12.6563 13.125ZM7.49014 11.25C6.27461 11.25 5.10244 10.8902 4.00615 10.1807C3.00801 9.53613 2.10947 8.61299 1.40752 7.51465V7.5123C1.9917 6.67529 2.63154 5.96748 3.31885 5.39678C3.32506 5.39158 3.33014 5.38515 3.33374 5.37789C3.33735 5.37063 3.33941 5.3627 3.33979 5.35461C3.34018 5.34651 3.33888 5.33843 3.33598 5.33086C3.33308 5.32329 3.32864 5.31641 3.32295 5.31064L2.73935 4.72793C2.72898 4.71747 2.71506 4.7113 2.70034 4.71065C2.68563 4.71 2.67121 4.71491 2.65996 4.72441C1.92988 5.33965 1.25224 6.09433 0.636131 6.97793C0.530131 7.13007 0.471752 7.31029 0.468413 7.49568C0.465075 7.68108 0.516927 7.86328 0.617381 8.01914C1.39111 9.22998 2.38691 10.2498 3.49668 10.9679C4.74619 11.7773 6.09092 12.1875 7.49014 12.1875C8.2454 12.1852 8.99531 12.0607 9.71084 11.8189C9.72028 11.8157 9.72874 11.8102 9.73544 11.8028C9.74213 11.7954 9.74683 11.7864 9.74909 11.7767C9.75135 11.767 9.75109 11.7569 9.74834 11.7473C9.7456 11.7377 9.74045 11.729 9.7334 11.722L9.10117 11.0897C9.08662 11.0755 9.06862 11.0654 9.04895 11.0602C9.02927 11.0551 9.0086 11.0552 8.98896 11.0604C8.49934 11.1865 7.99574 11.2502 7.49014 11.25ZM14.3802 6.99023C13.605 5.7914 12.5992 4.77304 11.4719 4.04502C10.2247 3.23877 8.84775 2.8125 7.49014 2.8125C6.74288 2.81382 6.00118 2.94089 5.29609 3.18838C5.2867 3.19165 5.27829 3.19725 5.27166 3.20467C5.26503 3.21209 5.2604 3.22107 5.2582 3.23077C5.25601 3.24047 5.25631 3.25057 5.2591 3.26012C5.26188 3.26967 5.26705 3.27835 5.27412 3.28535L5.90547 3.9167C5.92017 3.93114 5.93841 3.94146 5.95837 3.9466C5.97833 3.95175 5.99929 3.95154 6.01914 3.94599C6.49872 3.81626 6.99332 3.75036 7.49014 3.75C8.68223 3.75 9.85088 4.11416 10.9633 4.83398C11.9802 5.49023 12.8893 6.4125 13.593 7.5C13.5935 7.50067 13.5938 7.50149 13.5938 7.50234C13.5938 7.50319 13.5935 7.50402 13.593 7.50469C13.0822 8.30886 12.4483 9.02787 11.7145 9.63545C11.7082 9.64063 11.703 9.64706 11.6994 9.65433C11.6957 9.6616 11.6936 9.66956 11.6932 9.67769C11.6928 9.68582 11.6941 9.69395 11.697 9.70156C11.6999 9.70917 11.7043 9.71608 11.7101 9.72187L12.2931 10.3046C12.3034 10.315 12.3172 10.3212 12.3319 10.3219C12.3465 10.3226 12.3609 10.3178 12.3722 10.3084C13.1556 9.64878 13.8337 8.87344 14.3831 8.00918C14.4802 7.85688 14.5316 7.6799 14.531 7.49928C14.5305 7.31865 14.4782 7.14197 14.3802 6.99023Z" fill="#7A7F87"/>
<path d="M7.5001 4.6875C7.28944 4.68739 7.07943 4.71097 6.87403 4.75781C6.86366 4.75997 6.85406 4.76489 6.84626 4.77207C6.83847 4.77924 6.83276 4.7884 6.82976 4.79856C6.82675 4.80872 6.82656 4.81951 6.82919 4.82977C6.83183 4.84003 6.8372 4.84938 6.84473 4.85684L10.1433 8.15449C10.1507 8.16202 10.1601 8.1674 10.1703 8.17003C10.1806 8.17267 10.1914 8.17248 10.2015 8.16947C10.2117 8.16646 10.2209 8.16076 10.228 8.15296C10.2352 8.14517 10.2401 8.13557 10.2423 8.1252C10.3362 7.71329 10.3361 7.28553 10.242 6.87366C10.1479 6.4618 9.96229 6.07642 9.69884 5.74615C9.43539 5.41589 9.10092 5.14921 8.72027 4.96594C8.33962 4.78266 7.92258 4.68749 7.5001 4.6875ZM4.85694 6.84551C4.84949 6.83798 4.84013 6.83261 4.82987 6.82997C4.81961 6.82733 4.80882 6.82753 4.79866 6.83053C4.7885 6.83354 4.77935 6.83924 4.77217 6.84704C4.765 6.85483 4.76007 6.86443 4.75792 6.87481C4.65167 7.33897 4.66501 7.82251 4.79669 8.28011C4.92837 8.73771 5.17407 9.15439 5.51077 9.49109C5.84748 9.82779 6.26415 10.0735 6.72175 10.2052C7.17935 10.3369 7.66289 10.3502 8.12706 10.2439C8.13743 10.2418 8.14703 10.2369 8.15482 10.2297C8.16262 10.2225 8.16833 10.2134 8.17133 10.2032C8.17434 10.193 8.17453 10.1823 8.1719 10.172C8.16926 10.1617 8.16389 10.1524 8.15635 10.1449L4.85694 6.84551Z" fill="#7A7F87"/>
</svg>
