<svg width="16" height="11" viewBox="0 0 16 11" fill="none" xmlns="http://www.w3.org/2000/svg">
<path d="M7.98911 1C5.55359 1 3.05526 2.40969 1.08846 5.22906C1.03232 5.31042 1.00156 5.4066 1.00006 5.50544C0.998556 5.60428 1.02638 5.70135 1.08003 5.78438C2.59121 8.15 5.05611 10 7.98911 10C10.8902 10 13.4058 8.14438 14.9198 5.77344C14.9721 5.69203 15 5.59727 15 5.50047C15 5.40366 14.9721 5.3089 14.9198 5.2275C13.4023 2.88375 10.8684 1 7.98911 1Z" stroke="#7A7F87" stroke-linecap="round" stroke-linejoin="round"/>
<path d="M8 8C9.65685 8 11 6.88071 11 5.5C11 4.11929 9.65685 3 8 3C6.34315 3 5 4.11929 5 5.5C5 6.88071 6.34315 8 8 8Z" stroke="#7A7F87" stroke-miterlimit="10"/>
</svg>
